<mxfile host="Electron" modified="2024-07-15T10:34:58.342Z" agent="Mozilla/5.0 (Windows NT 10.0; Win64; x64) AppleWebKit/537.36 (KHTML, like Gecko) draw.io/24.5.3 Chrome/124.0.6367.207 Electron/30.0.6 Safari/537.36" etag="ZH9QnCv6iHFxKZ2Tg14d" version="24.5.3" type="device">
  <diagram name="Page-1" id="vvo5bMpLMTvipAlPnBuz">
    <mxGraphModel dx="1050" dy="621" grid="1" gridSize="10" guides="1" tooltips="1" connect="1" arrows="1" fold="1" page="1" pageScale="1" pageWidth="750" pageHeight="950" math="0" shadow="0">
      <root>
        <mxCell id="0" />
        <mxCell id="1" parent="0" />
        <mxCell id="cpOM4BunN7xSmRiOeSGM-4" style="edgeStyle=orthogonalEdgeStyle;rounded=0;orthogonalLoop=1;jettySize=auto;html=1;exitX=0;exitY=0.5;exitDx=0;exitDy=0;entryX=0.25;entryY=1;entryDx=0;entryDy=0;" edge="1" parent="1" source="e5dmHPFLGidgVPP7bLhl-1" target="e5dmHPFLGidgVPP7bLhl-3">
          <mxGeometry relative="1" as="geometry" />
        </mxCell>
        <mxCell id="cpOM4BunN7xSmRiOeSGM-5" style="edgeStyle=orthogonalEdgeStyle;rounded=0;orthogonalLoop=1;jettySize=auto;html=1;exitX=0.111;exitY=0.211;exitDx=0;exitDy=0;entryX=0.5;entryY=1;entryDx=0;entryDy=0;exitPerimeter=0;" edge="1" parent="1" source="e5dmHPFLGidgVPP7bLhl-1" target="e5dmHPFLGidgVPP7bLhl-3">
          <mxGeometry relative="1" as="geometry" />
        </mxCell>
        <mxCell id="cpOM4BunN7xSmRiOeSGM-24" style="edgeStyle=orthogonalEdgeStyle;rounded=0;orthogonalLoop=1;jettySize=auto;html=1;exitX=0;exitY=1;exitDx=0;exitDy=0;entryX=0.5;entryY=0;entryDx=0;entryDy=0;" edge="1" parent="1" source="e5dmHPFLGidgVPP7bLhl-1" target="e5dmHPFLGidgVPP7bLhl-4">
          <mxGeometry relative="1" as="geometry">
            <Array as="points">
              <mxPoint x="343" y="340" />
              <mxPoint x="160" y="340" />
            </Array>
          </mxGeometry>
        </mxCell>
        <mxCell id="cpOM4BunN7xSmRiOeSGM-25" style="edgeStyle=orthogonalEdgeStyle;rounded=0;orthogonalLoop=1;jettySize=auto;html=1;exitX=0.064;exitY=0.737;exitDx=0;exitDy=0;entryX=0.25;entryY=0;entryDx=0;entryDy=0;exitPerimeter=0;elbow=vertical;" edge="1" parent="1" source="e5dmHPFLGidgVPP7bLhl-1" target="e5dmHPFLGidgVPP7bLhl-4">
          <mxGeometry relative="1" as="geometry">
            <Array as="points">
              <mxPoint x="321" y="320" />
              <mxPoint x="135" y="320" />
            </Array>
          </mxGeometry>
        </mxCell>
        <mxCell id="cpOM4BunN7xSmRiOeSGM-40" style="edgeStyle=orthogonalEdgeStyle;rounded=0;orthogonalLoop=1;jettySize=auto;html=1;exitX=0.914;exitY=0.211;exitDx=0;exitDy=0;entryX=0.5;entryY=1;entryDx=0;entryDy=0;exitPerimeter=0;" edge="1" parent="1" source="e5dmHPFLGidgVPP7bLhl-1" target="e5dmHPFLGidgVPP7bLhl-6">
          <mxGeometry relative="1" as="geometry">
            <mxPoint x="545.9749999999999" y="265.99" as="sourcePoint" />
            <mxPoint x="650" y="188" as="targetPoint" />
          </mxGeometry>
        </mxCell>
        <mxCell id="cpOM4BunN7xSmRiOeSGM-41" style="edgeStyle=orthogonalEdgeStyle;rounded=0;orthogonalLoop=1;jettySize=auto;html=1;exitX=1;exitY=0.5;exitDx=0;exitDy=0;entryX=0.75;entryY=1;entryDx=0;entryDy=0;" edge="1" parent="1" source="e5dmHPFLGidgVPP7bLhl-1" target="e5dmHPFLGidgVPP7bLhl-6">
          <mxGeometry relative="1" as="geometry" />
        </mxCell>
        <mxCell id="cpOM4BunN7xSmRiOeSGM-57" style="edgeStyle=orthogonalEdgeStyle;rounded=0;orthogonalLoop=1;jettySize=auto;html=1;entryX=0.75;entryY=0;entryDx=0;entryDy=0;exitX=0.951;exitY=0.737;exitDx=0;exitDy=0;exitPerimeter=0;entryPerimeter=0;" edge="1" parent="1" target="e5dmHPFLGidgVPP7bLhl-5">
          <mxGeometry relative="1" as="geometry">
            <mxPoint x="547.5050000000001" y="299.59000000000003" as="sourcePoint" />
            <mxPoint x="745" y="398" as="targetPoint" />
            <Array as="points">
              <mxPoint x="548" y="320" />
              <mxPoint x="745" y="320" />
            </Array>
          </mxGeometry>
        </mxCell>
        <mxCell id="cpOM4BunN7xSmRiOeSGM-59" style="edgeStyle=orthogonalEdgeStyle;rounded=0;orthogonalLoop=1;jettySize=auto;html=1;entryX=0.5;entryY=0;entryDx=0;entryDy=0;" edge="1" parent="1" source="e5dmHPFLGidgVPP7bLhl-1" target="e5dmHPFLGidgVPP7bLhl-5">
          <mxGeometry relative="1" as="geometry">
            <Array as="points">
              <mxPoint x="536" y="340" />
              <mxPoint x="720" y="340" />
            </Array>
          </mxGeometry>
        </mxCell>
        <mxCell id="e5dmHPFLGidgVPP7bLhl-1" value="&lt;b&gt;&lt;font style=&quot;font-size: 14px;&quot;&gt;Loan Management System&lt;/font&gt;&lt;/b&gt;" style="ellipse;whiteSpace=wrap;html=1;" parent="1" vertex="1">
          <mxGeometry x="305" y="250" width="255" height="70" as="geometry" />
        </mxCell>
        <mxCell id="e5dmHPFLGidgVPP7bLhl-7" style="edgeStyle=orthogonalEdgeStyle;rounded=0;orthogonalLoop=1;jettySize=auto;html=1;exitX=1;exitY=0.75;exitDx=0;exitDy=0;entryX=0;entryY=0;entryDx=0;entryDy=0;" parent="1" source="e5dmHPFLGidgVPP7bLhl-3" target="e5dmHPFLGidgVPP7bLhl-1" edge="1">
          <mxGeometry relative="1" as="geometry" />
        </mxCell>
        <mxCell id="e5dmHPFLGidgVPP7bLhl-18" style="edgeStyle=orthogonalEdgeStyle;rounded=0;orthogonalLoop=1;jettySize=auto;html=1;exitX=0.75;exitY=0;exitDx=0;exitDy=0;entryX=0.28;entryY=0.063;entryDx=0;entryDy=0;entryPerimeter=0;" parent="1" source="e5dmHPFLGidgVPP7bLhl-3" target="e5dmHPFLGidgVPP7bLhl-1" edge="1">
          <mxGeometry relative="1" as="geometry">
            <Array as="points">
              <mxPoint x="185" y="140" />
              <mxPoint x="376" y="140" />
            </Array>
            <mxPoint x="360" y="250" as="targetPoint" />
          </mxGeometry>
        </mxCell>
        <mxCell id="cpOM4BunN7xSmRiOeSGM-1" style="edgeStyle=orthogonalEdgeStyle;rounded=0;orthogonalLoop=1;jettySize=auto;html=1;exitX=0.5;exitY=0;exitDx=0;exitDy=0;entryX=0.333;entryY=0.051;entryDx=0;entryDy=0;entryPerimeter=0;" edge="1" parent="1" source="e5dmHPFLGidgVPP7bLhl-3" target="e5dmHPFLGidgVPP7bLhl-1">
          <mxGeometry relative="1" as="geometry">
            <mxPoint x="390" y="250" as="targetPoint" />
            <Array as="points">
              <mxPoint x="160" y="120" />
              <mxPoint x="390" y="120" />
            </Array>
          </mxGeometry>
        </mxCell>
        <mxCell id="e5dmHPFLGidgVPP7bLhl-3" value="&lt;b&gt;Applicant&lt;/b&gt;" style="html=1;dashed=0;whiteSpace=wrap;" parent="1" vertex="1">
          <mxGeometry x="110" y="150" width="100" height="40" as="geometry" />
        </mxCell>
        <mxCell id="cpOM4BunN7xSmRiOeSGM-8" style="edgeStyle=orthogonalEdgeStyle;rounded=0;orthogonalLoop=1;jettySize=auto;html=1;exitX=1;exitY=0.25;exitDx=0;exitDy=0;entryX=0.189;entryY=0.874;entryDx=0;entryDy=0;entryPerimeter=0;" edge="1" parent="1" target="e5dmHPFLGidgVPP7bLhl-1">
          <mxGeometry relative="1" as="geometry">
            <mxPoint x="210" y="404.5" as="sourcePoint" />
            <mxPoint x="338.03999999999996" y="310.63" as="targetPoint" />
          </mxGeometry>
        </mxCell>
        <mxCell id="cpOM4BunN7xSmRiOeSGM-10" style="edgeStyle=orthogonalEdgeStyle;rounded=0;orthogonalLoop=1;jettySize=auto;html=1;exitX=0.75;exitY=1;exitDx=0;exitDy=0;entryX=0.302;entryY=0.977;entryDx=0;entryDy=0;entryPerimeter=0;" edge="1" parent="1" target="e5dmHPFLGidgVPP7bLhl-1">
          <mxGeometry relative="1" as="geometry">
            <mxPoint x="185" y="428" as="sourcePoint" />
            <mxPoint x="368.4949999999999" y="314.78" as="targetPoint" />
            <Array as="points">
              <mxPoint x="185" y="448" />
              <mxPoint x="382" y="448" />
            </Array>
          </mxGeometry>
        </mxCell>
        <mxCell id="e5dmHPFLGidgVPP7bLhl-4" value="&lt;b&gt;Officer&lt;span style=&quot;color: rgba(0, 0, 0, 0); font-family: monospace; font-size: 0px; text-align: start; text-wrap: nowrap;&quot;&gt;%3CmxGraphModel%3E%3Croot%3E%3CmxCell%20id%3D%220%22%2F%3E%3CmxCell%20id%3D%221%22%20parent%3D%220%22%2F%3E%3CmxCell%20id%3D%222%22%20value%3D%22Applicant%22%20style%3D%22html%3D1%3Bdashed%3D0%3BwhiteSpace%3Dwrap%3B%22%20vertex%3D%221%22%20parent%3D%221%22%3E%3CmxGeometry%20x%3D%22110%22%20y%3D%22160%22%20width%3D%22100%22%20height%3D%2230%22%20as%3D%22geometry%22%2F%3E%3C%2FmxCell%3E%3C%2Froot%3E%3C%2FmxGraphModel%3E&lt;/span&gt;&lt;/b&gt;" style="html=1;dashed=0;whiteSpace=wrap;" parent="1" vertex="1">
          <mxGeometry x="110" y="400" width="100" height="30" as="geometry" />
        </mxCell>
        <mxCell id="cpOM4BunN7xSmRiOeSGM-46" style="edgeStyle=orthogonalEdgeStyle;rounded=0;orthogonalLoop=1;jettySize=auto;html=1;exitX=0;exitY=0.25;exitDx=0;exitDy=0;entryX=1;entryY=1;entryDx=0;entryDy=0;" edge="1" parent="1" target="e5dmHPFLGidgVPP7bLhl-1">
          <mxGeometry relative="1" as="geometry">
            <mxPoint x="670" y="404.5" as="sourcePoint" />
            <mxPoint x="522.478816954226" y="306.7973117590386" as="targetPoint" />
          </mxGeometry>
        </mxCell>
        <mxCell id="cpOM4BunN7xSmRiOeSGM-50" style="edgeStyle=orthogonalEdgeStyle;rounded=0;orthogonalLoop=1;jettySize=auto;html=1;exitX=0.75;exitY=1;exitDx=0;exitDy=0;entryX=0.5;entryY=1;entryDx=0;entryDy=0;" edge="1" parent="1" source="e5dmHPFLGidgVPP7bLhl-5" target="e5dmHPFLGidgVPP7bLhl-1">
          <mxGeometry relative="1" as="geometry">
            <Array as="points">
              <mxPoint x="745" y="490" />
              <mxPoint x="433" y="490" />
            </Array>
          </mxGeometry>
        </mxCell>
        <mxCell id="e5dmHPFLGidgVPP7bLhl-5" value="&lt;b&gt;Manager&lt;/b&gt;" style="html=1;dashed=0;whiteSpace=wrap;" parent="1" vertex="1">
          <mxGeometry x="670" y="400" width="100" height="30" as="geometry" />
        </mxCell>
        <mxCell id="cpOM4BunN7xSmRiOeSGM-28" style="edgeStyle=orthogonalEdgeStyle;rounded=0;orthogonalLoop=1;jettySize=auto;html=1;exitX=0;exitY=0.75;exitDx=0;exitDy=0;entryX=1;entryY=0;entryDx=0;entryDy=0;" edge="1" parent="1" source="e5dmHPFLGidgVPP7bLhl-6">
          <mxGeometry relative="1" as="geometry">
            <mxPoint x="601" y="184.5" as="sourcePoint" />
            <mxPoint x="523.478816954226" y="262.2026882409614" as="targetPoint" />
          </mxGeometry>
        </mxCell>
        <mxCell id="cpOM4BunN7xSmRiOeSGM-32" style="edgeStyle=orthogonalEdgeStyle;rounded=0;orthogonalLoop=1;jettySize=auto;html=1;exitX=0.75;exitY=0;exitDx=0;exitDy=0;entryX=0.5;entryY=0;entryDx=0;entryDy=0;" edge="1" parent="1" source="e5dmHPFLGidgVPP7bLhl-6" target="e5dmHPFLGidgVPP7bLhl-1">
          <mxGeometry relative="1" as="geometry">
            <Array as="points">
              <mxPoint x="745" y="100" />
              <mxPoint x="433" y="100" />
            </Array>
          </mxGeometry>
        </mxCell>
        <mxCell id="e5dmHPFLGidgVPP7bLhl-6" value="&lt;b&gt;Admin&lt;/b&gt;" style="html=1;dashed=0;whiteSpace=wrap;" parent="1" vertex="1">
          <mxGeometry x="670" y="160" width="100" height="30" as="geometry" />
        </mxCell>
        <mxCell id="e5dmHPFLGidgVPP7bLhl-8" value="Login" style="text;html=1;align=center;verticalAlign=middle;whiteSpace=wrap;rounded=0;" parent="1" vertex="1">
          <mxGeometry x="247.5" y="74" width="60" height="30" as="geometry" />
        </mxCell>
        <mxCell id="e5dmHPFLGidgVPP7bLhl-9" value="Set-up Auto Pay" style="text;html=1;align=center;verticalAlign=middle;whiteSpace=wrap;rounded=0;" parent="1" vertex="1">
          <mxGeometry x="227.5" y="95" width="100" height="30" as="geometry" />
        </mxCell>
        <mxCell id="e5dmHPFLGidgVPP7bLhl-10" value="Update Profile" style="text;html=1;align=center;verticalAlign=middle;whiteSpace=wrap;rounded=0;" parent="1" vertex="1">
          <mxGeometry x="232.5" y="115" width="90" height="30" as="geometry" />
        </mxCell>
        <mxCell id="e5dmHPFLGidgVPP7bLhl-11" value="Submit Application" style="text;html=1;align=center;verticalAlign=middle;whiteSpace=wrap;rounded=0;" parent="1" vertex="1">
          <mxGeometry x="222.5" y="136" width="110" height="30" as="geometry" />
        </mxCell>
        <mxCell id="e5dmHPFLGidgVPP7bLhl-12" value="Make Payment" style="text;html=1;align=center;verticalAlign=middle;whiteSpace=wrap;rounded=0;" parent="1" vertex="1">
          <mxGeometry x="235" y="156" width="85" height="30" as="geometry" />
        </mxCell>
        <mxCell id="e5dmHPFLGidgVPP7bLhl-13" style="edgeStyle=orthogonalEdgeStyle;rounded=0;orthogonalLoop=1;jettySize=auto;html=1;exitX=1;exitY=0.25;exitDx=0;exitDy=0;" parent="1" source="e5dmHPFLGidgVPP7bLhl-3" edge="1">
          <mxGeometry relative="1" as="geometry">
            <Array as="points">
              <mxPoint x="360" y="160" />
              <mxPoint x="360" y="255" />
            </Array>
            <mxPoint x="360" y="255" as="targetPoint" />
          </mxGeometry>
        </mxCell>
        <mxCell id="cpOM4BunN7xSmRiOeSGM-3" style="edgeStyle=orthogonalEdgeStyle;rounded=0;orthogonalLoop=1;jettySize=auto;html=1;exitX=0.25;exitY=0;exitDx=0;exitDy=0;entryX=0.387;entryY=0.017;entryDx=0;entryDy=0;entryPerimeter=0;" edge="1" parent="1" source="e5dmHPFLGidgVPP7bLhl-3" target="e5dmHPFLGidgVPP7bLhl-1">
          <mxGeometry relative="1" as="geometry">
            <mxPoint x="410" y="250" as="targetPoint" />
            <Array as="points">
              <mxPoint x="135" y="100" />
              <mxPoint x="404" y="100" />
            </Array>
          </mxGeometry>
        </mxCell>
        <mxCell id="cpOM4BunN7xSmRiOeSGM-6" value="Payment Successful" style="text;html=1;align=center;verticalAlign=middle;whiteSpace=wrap;rounded=0;" vertex="1" parent="1">
          <mxGeometry x="164.5" y="240" width="120" height="30" as="geometry" />
        </mxCell>
        <mxCell id="cpOM4BunN7xSmRiOeSGM-7" value="Autopay Set-up Successful" style="text;html=1;align=center;verticalAlign=middle;whiteSpace=wrap;rounded=0;" vertex="1" parent="1">
          <mxGeometry x="151" y="260" width="147" height="30" as="geometry" />
        </mxCell>
        <mxCell id="cpOM4BunN7xSmRiOeSGM-9" style="edgeStyle=orthogonalEdgeStyle;rounded=0;orthogonalLoop=1;jettySize=auto;html=1;exitX=1;exitY=0.75;exitDx=0;exitDy=0;entryX=0.242;entryY=0.943;entryDx=0;entryDy=0;entryPerimeter=0;" edge="1" parent="1" target="e5dmHPFLGidgVPP7bLhl-1">
          <mxGeometry relative="1" as="geometry">
            <mxPoint x="210" y="425.5" as="sourcePoint" />
            <mxPoint x="357.22" y="322.23" as="targetPoint" />
          </mxGeometry>
        </mxCell>
        <mxCell id="cpOM4BunN7xSmRiOeSGM-11" style="edgeStyle=orthogonalEdgeStyle;rounded=0;orthogonalLoop=1;jettySize=auto;html=1;exitX=0.5;exitY=1;exitDx=0;exitDy=0;entryX=0.355;entryY=1.011;entryDx=0;entryDy=0;entryPerimeter=0;" edge="1" parent="1" source="e5dmHPFLGidgVPP7bLhl-4" target="e5dmHPFLGidgVPP7bLhl-1">
          <mxGeometry relative="1" as="geometry">
            <mxPoint x="400" y="319" as="targetPoint" />
            <Array as="points">
              <mxPoint x="160" y="470" />
              <mxPoint x="396" y="470" />
            </Array>
          </mxGeometry>
        </mxCell>
        <mxCell id="cpOM4BunN7xSmRiOeSGM-12" style="edgeStyle=orthogonalEdgeStyle;rounded=0;orthogonalLoop=1;jettySize=auto;html=1;exitX=0.25;exitY=1;exitDx=0;exitDy=0;entryX=0.402;entryY=1;entryDx=0;entryDy=0;entryPerimeter=0;" edge="1" parent="1" source="e5dmHPFLGidgVPP7bLhl-4" target="e5dmHPFLGidgVPP7bLhl-1">
          <mxGeometry relative="1" as="geometry">
            <mxPoint x="440" y="319" as="targetPoint" />
            <Array as="points">
              <mxPoint x="135" y="490" />
              <mxPoint x="408" y="490" />
            </Array>
          </mxGeometry>
        </mxCell>
        <mxCell id="cpOM4BunN7xSmRiOeSGM-13" value="Verify Financial" style="text;html=1;align=center;verticalAlign=middle;whiteSpace=wrap;rounded=0;" vertex="1" parent="1">
          <mxGeometry x="231.5" y="380" width="85" height="30" as="geometry" />
        </mxCell>
        <mxCell id="cpOM4BunN7xSmRiOeSGM-14" value="Generate Report" style="text;html=1;align=center;verticalAlign=middle;whiteSpace=wrap;rounded=0;" vertex="1" parent="1">
          <mxGeometry x="225.5" y="403" width="98.5" height="30" as="geometry" />
        </mxCell>
        <mxCell id="cpOM4BunN7xSmRiOeSGM-15" value="Assign Application" style="text;html=1;align=center;verticalAlign=middle;whiteSpace=wrap;rounded=0;" vertex="1" parent="1">
          <mxGeometry x="216.75" y="424" width="114.5" height="30" as="geometry" />
        </mxCell>
        <mxCell id="cpOM4BunN7xSmRiOeSGM-16" value="Access Loan Terms" style="text;html=1;align=center;verticalAlign=middle;whiteSpace=wrap;rounded=0;" vertex="1" parent="1">
          <mxGeometry x="220.25" y="447" width="114.5" height="30" as="geometry" />
        </mxCell>
        <mxCell id="cpOM4BunN7xSmRiOeSGM-19" value="Review Application" style="text;html=1;align=center;verticalAlign=middle;whiteSpace=wrap;rounded=0;" vertex="1" parent="1">
          <mxGeometry x="217.5" y="465" width="114.5" height="30" as="geometry" />
        </mxCell>
        <mxCell id="cpOM4BunN7xSmRiOeSGM-26" value="Loan Terms Access Successed" style="text;html=1;align=center;verticalAlign=middle;whiteSpace=wrap;rounded=0;" vertex="1" parent="1">
          <mxGeometry x="145" y="298" width="169" height="30" as="geometry" />
        </mxCell>
        <mxCell id="cpOM4BunN7xSmRiOeSGM-27" value="Financial Verification Successful" style="text;html=1;align=center;verticalAlign=middle;whiteSpace=wrap;rounded=0;" vertex="1" parent="1">
          <mxGeometry x="160" y="318" width="183" height="30" as="geometry" />
        </mxCell>
        <mxCell id="cpOM4BunN7xSmRiOeSGM-29" style="edgeStyle=orthogonalEdgeStyle;rounded=0;orthogonalLoop=1;jettySize=auto;html=1;exitX=0;exitY=0;exitDx=0;exitDy=0;entryX=0.757;entryY=0.074;entryDx=0;entryDy=0;entryPerimeter=0;" edge="1" parent="1" target="e5dmHPFLGidgVPP7bLhl-1">
          <mxGeometry relative="1" as="geometry">
            <mxPoint x="670" y="164" as="sourcePoint" />
            <mxPoint x="497.27" y="259.17999999999995" as="targetPoint" />
            <Array as="points">
              <mxPoint x="497" y="164" />
            </Array>
          </mxGeometry>
        </mxCell>
        <mxCell id="cpOM4BunN7xSmRiOeSGM-30" style="edgeStyle=orthogonalEdgeStyle;rounded=0;orthogonalLoop=1;jettySize=auto;html=1;exitX=0.25;exitY=0;exitDx=0;exitDy=0;entryX=0.663;entryY=0.04;entryDx=0;entryDy=0;entryPerimeter=0;" edge="1" parent="1" source="e5dmHPFLGidgVPP7bLhl-6" target="e5dmHPFLGidgVPP7bLhl-1">
          <mxGeometry relative="1" as="geometry" />
        </mxCell>
        <mxCell id="cpOM4BunN7xSmRiOeSGM-31" style="edgeStyle=orthogonalEdgeStyle;rounded=0;orthogonalLoop=1;jettySize=auto;html=1;exitX=0.5;exitY=0;exitDx=0;exitDy=0;entryX=0.569;entryY=0.006;entryDx=0;entryDy=0;entryPerimeter=0;" edge="1" parent="1" source="e5dmHPFLGidgVPP7bLhl-6" target="e5dmHPFLGidgVPP7bLhl-1">
          <mxGeometry relative="1" as="geometry">
            <Array as="points">
              <mxPoint x="720" y="120" />
              <mxPoint x="450" y="120" />
            </Array>
          </mxGeometry>
        </mxCell>
        <mxCell id="cpOM4BunN7xSmRiOeSGM-33" value="Back-up &amp;amp; Recovery" style="text;html=1;align=center;verticalAlign=middle;whiteSpace=wrap;rounded=0;" vertex="1" parent="1">
          <mxGeometry x="530" y="74" width="130" height="30" as="geometry" />
        </mxCell>
        <mxCell id="cpOM4BunN7xSmRiOeSGM-35" value="Define User Role" style="text;html=1;align=center;verticalAlign=middle;whiteSpace=wrap;rounded=0;" vertex="1" parent="1">
          <mxGeometry x="530" y="95" width="130" height="30" as="geometry" />
        </mxCell>
        <mxCell id="cpOM4BunN7xSmRiOeSGM-36" value="User Handling" style="text;html=1;align=center;verticalAlign=middle;whiteSpace=wrap;rounded=0;" vertex="1" parent="1">
          <mxGeometry x="530" y="115" width="130" height="30" as="geometry" />
        </mxCell>
        <mxCell id="cpOM4BunN7xSmRiOeSGM-37" value="Audit Logs" style="text;html=1;align=center;verticalAlign=middle;whiteSpace=wrap;rounded=0;" vertex="1" parent="1">
          <mxGeometry x="530" y="136" width="130" height="30" as="geometry" />
        </mxCell>
        <mxCell id="cpOM4BunN7xSmRiOeSGM-38" value="API Access" style="text;html=1;align=center;verticalAlign=middle;whiteSpace=wrap;rounded=0;" vertex="1" parent="1">
          <mxGeometry x="530" y="159" width="130" height="30" as="geometry" />
        </mxCell>
        <mxCell id="cpOM4BunN7xSmRiOeSGM-42" value="API Access Successed" style="text;html=1;align=center;verticalAlign=middle;whiteSpace=wrap;rounded=0;" vertex="1" parent="1">
          <mxGeometry x="585" y="240" width="130" height="30" as="geometry" />
        </mxCell>
        <mxCell id="cpOM4BunN7xSmRiOeSGM-45" value="User Role Define&amp;nbsp;Successful" style="text;html=1;align=center;verticalAlign=middle;whiteSpace=wrap;rounded=0;" vertex="1" parent="1">
          <mxGeometry x="570" y="260" width="160" height="30" as="geometry" />
        </mxCell>
        <mxCell id="cpOM4BunN7xSmRiOeSGM-47" style="edgeStyle=orthogonalEdgeStyle;rounded=0;orthogonalLoop=1;jettySize=auto;html=1;exitX=0;exitY=0.75;exitDx=0;exitDy=0;entryX=0.763;entryY=0.931;entryDx=0;entryDy=0;entryPerimeter=0;" edge="1" parent="1" target="e5dmHPFLGidgVPP7bLhl-1">
          <mxGeometry relative="1" as="geometry">
            <mxPoint x="670" y="425.5" as="sourcePoint" />
            <mxPoint x="501.095" y="319.78" as="targetPoint" />
          </mxGeometry>
        </mxCell>
        <mxCell id="cpOM4BunN7xSmRiOeSGM-48" style="edgeStyle=orthogonalEdgeStyle;rounded=0;orthogonalLoop=1;jettySize=auto;html=1;exitX=0.25;exitY=1;exitDx=0;exitDy=0;entryX=0.678;entryY=0.989;entryDx=0;entryDy=0;entryPerimeter=0;" edge="1" parent="1" source="e5dmHPFLGidgVPP7bLhl-5" target="e5dmHPFLGidgVPP7bLhl-1">
          <mxGeometry relative="1" as="geometry">
            <Array as="points">
              <mxPoint x="695" y="450" />
              <mxPoint x="478" y="450" />
            </Array>
          </mxGeometry>
        </mxCell>
        <mxCell id="cpOM4BunN7xSmRiOeSGM-49" style="edgeStyle=orthogonalEdgeStyle;rounded=0;orthogonalLoop=1;jettySize=auto;html=1;exitX=0.5;exitY=1;exitDx=0;exitDy=0;entryX=0.591;entryY=1.057;entryDx=0;entryDy=0;entryPerimeter=0;" edge="1" parent="1" source="e5dmHPFLGidgVPP7bLhl-5">
          <mxGeometry relative="1" as="geometry">
            <mxPoint x="720" y="426" as="sourcePoint" />
            <mxPoint x="455.7049999999999" y="319.99" as="targetPoint" />
            <Array as="points">
              <mxPoint x="720" y="470" />
              <mxPoint x="456" y="470" />
            </Array>
          </mxGeometry>
        </mxCell>
        <mxCell id="cpOM4BunN7xSmRiOeSGM-51" value="Approve Application" style="text;html=1;align=center;verticalAlign=middle;whiteSpace=wrap;rounded=0;" vertex="1" parent="1">
          <mxGeometry x="530" y="400" width="130" height="30" as="geometry" />
        </mxCell>
        <mxCell id="cpOM4BunN7xSmRiOeSGM-52" value="Make Decision" style="text;html=1;align=center;verticalAlign=middle;whiteSpace=wrap;rounded=0;" vertex="1" parent="1">
          <mxGeometry x="530" y="380" width="130" height="30" as="geometry" />
        </mxCell>
        <mxCell id="cpOM4BunN7xSmRiOeSGM-53" value="Define Workflow" style="text;html=1;align=center;verticalAlign=middle;whiteSpace=wrap;rounded=0;" vertex="1" parent="1">
          <mxGeometry x="530" y="423" width="130" height="30" as="geometry" />
        </mxCell>
        <mxCell id="cpOM4BunN7xSmRiOeSGM-54" value="Conduct Audit" style="text;html=1;align=center;verticalAlign=middle;whiteSpace=wrap;rounded=0;" vertex="1" parent="1">
          <mxGeometry x="530" y="446" width="130" height="30" as="geometry" />
        </mxCell>
        <mxCell id="cpOM4BunN7xSmRiOeSGM-55" value="Request System Change" style="text;html=1;align=center;verticalAlign=middle;whiteSpace=wrap;rounded=0;" vertex="1" parent="1">
          <mxGeometry x="522" y="466" width="150" height="30" as="geometry" />
        </mxCell>
        <mxCell id="cpOM4BunN7xSmRiOeSGM-60" value="Application Approve" style="text;html=1;align=center;verticalAlign=middle;whiteSpace=wrap;rounded=0;" vertex="1" parent="1">
          <mxGeometry x="585" y="316" width="130" height="30" as="geometry" />
        </mxCell>
        <mxCell id="cpOM4BunN7xSmRiOeSGM-62" value="Workflow Defination Successed" style="text;html=1;align=center;verticalAlign=middle;whiteSpace=wrap;rounded=0;" vertex="1" parent="1">
          <mxGeometry x="560" y="297" width="182" height="30" as="geometry" />
        </mxCell>
      </root>
    </mxGraphModel>
  </diagram>
</mxfile>
